<svg id="Capa_1" enable-background="new 0 0 510.043 510.043" height="512" viewBox="0 0 510.043 510.043" width="512" xmlns="http://www.w3.org/2000/svg"><g><path id="XMLID_246_" d="m503.521 216.218c-8.924-30.908-22.445-60.024-40.188-86.541-17.504-26.161-38.706-49.188-63.016-68.442-50.581-40.06-110.881-61.235-174.383-61.235-51.993 0-103.021 14.652-147.565 42.372-6.867 4.272-9.147 13.474-5.119 20.651l41.015 73.072c1.97 3.51 5.213 6.054 9.006 7.065 3.791 1.011 7.818.405 11.175-1.686 27.615-17.184 59.251-26.268 91.488-26.268 39.374 0 76.769 13.134 108.142 37.981 30.401 24.078 53.203 58.324 64.205 96.43 1.12 3.877 3.686 7.13 7.13 9.036 2.14 1.185 4.51 1.789 6.892 1.789 1.449 0 2.904-.223 4.314-.674l77.196-24.691c7.68-2.457 12.014-10.875 9.708-18.859z" fill="#d20000"/><g><path id="XMLID_248_" d="m225.574 0c-51.994 0-103.021 14.652-147.565 42.372-6.867 4.272-9.147 13.474-5.119 20.651l41.015 73.072c1.97 3.51 5.213 6.054 9.006 7.065 3.791 1.011 7.818.405 11.175-1.686 27.615-17.184 59.251-26.268 91.488-26.268 12.56 0 24.917 1.342 36.942 3.969v-116.737c-12.159-1.611-24.488-2.438-36.942-2.438z" fill="#ff2828"/></g><g><g><path id="XMLID_758_" d="m436.363 248.398c-13.571-45.325-41.706-86.066-79.219-114.716-38.844-29.666-85.152-45.347-133.921-45.347-39.93 0-79.119 10.851-113.329 31.38-7.252 4.351-9.704 13.695-5.522 21.046l40.539 71.268c3.693 6.495 11.48 9.448 18.555 7.038 29.352-10.006 63.617-9.821 94.006.504 23.365 7.938 54.621 25.407 70.841 63.55 2.498 5.875 8.227 9.479 14.324 9.479 1.514 0 3.051-.222 4.566-.687l78.809-24.165c8.185-2.51 12.807-11.152 10.351-19.35z" fill="#8f4813"/></g></g><g><path id="XMLID_863_" d="m223.224 88.335c-39.93 0-79.119 10.851-113.329 31.38-7.252 4.351-9.704 13.695-5.522 21.046l40.539 71.268c3.693 6.495 11.48 9.448 18.555 7.038 29.352-10.006 63.617-9.821 94.006.504 1.643.558 3.329 1.169 5.042 1.826v-129.581c-12.846-2.304-25.975-3.481-39.291-3.481z" fill="#bc5f19"/></g><path id="XMLID_141_" d="m335.564 212.313c-18.604-21.912-44.668-37.599-75.373-45.365-34.456-8.716-71.987-6.802-105.679 5.387-36.365 13.158-54.129 36.618-71.004 67.843-10.341 19.135-74.203 160.717-76.916 166.735-1.087 2.409-.877 5.204.557 7.424s3.896 3.56 6.538 3.56h55.428c3.207 0 6.085-1.967 7.251-4.954l35.346-90.573c8.077-10.884 24.95-18.416 41.445-18.416h.048c10.066.009 23.815 2.78 34.476 15.27-18.535 29.273-48.735 25.489-50.034 25.311-3.624-.539-7.123 1.523-8.417 4.945l-56.622 149.56c-.851 2.248-.616 4.762.636 6.813s3.382 3.408 5.77 3.678c3.076.347 6.186.513 9.34.513 38.319 0 82.141-24.587 124.621-48.422 38.018-21.332 77.325-43.39 96.825-35.016 2.406 1.033 5.169.788 7.354-.652 2.186-1.44 3.502-3.883 3.502-6.5 0-7.44 6.673-17.173 14.4-28.443 13.556-19.773 32.122-46.852 32.122-86.567 0-36.427-10.637-67.424-31.614-92.131z" fill="#ff9f22"/><g><path id="XMLID_759_" d="m260.191 166.948c-34.456-8.716-71.987-6.802-105.679 5.387-36.365 13.158-54.129 36.618-71.004 67.843-10.341 19.135-74.203 160.717-76.916 166.735-1.087 2.409-.877 5.204.557 7.424s3.896 3.56 6.538 3.56h55.428c3.207 0 6.085-1.967 7.251-4.954l35.346-90.573c8.077-10.884 24.95-18.416 41.444-18.416h.048c10.066.009 23.815 2.78 34.476 15.27-18.535 29.273-48.735 25.489-50.034 25.311-3.624-.539-7.123 1.523-8.417 4.945l-56.622 149.56c-.851 2.248-.616 4.762.637 6.813s3.382 3.408 5.77 3.678c3.076.347 6.186.513 9.34.513 38.319 0 82.141-24.587 124.621-48.422 16.876-9.469 34.003-19.076 49.542-26.105v-267.938c-.777-.208-1.543-.433-2.326-.631z" fill="#ffcd00"/></g></g></svg>